<svg width="18" height="22" viewBox="0 0 18 22" fill="none" xmlns="http://www.w3.org/2000/svg">
<path d="M10.9043 1H2.91935C2.38991 1 1.88215 1.21071 1.50778 1.58579C1.13341 1.96086 0.923096 2.46957 0.923096 3V19C0.923096 19.5304 1.13341 20.0391 1.50778 20.4142C1.88215 20.7893 2.38991 21 2.91935 21H14.8968C15.4263 21 15.934 20.7893 16.3084 20.4142C16.6828 20.0391 16.8931 19.5304 16.8931 19V7L10.9043 1Z" stroke="#2B3844" stroke-width="1.8" stroke-linecap="round" stroke-linejoin="round"/>
<path d="M10.9043 1V7H16.893" stroke="#2B3844" stroke-width="1.8" stroke-linecap="round" stroke-linejoin="round"/>
<path d="M12.9005 12H4.91553" stroke="#2B3844" stroke-width="1.8" stroke-linecap="round" stroke-linejoin="round"/>
<path d="M12.9005 16H4.91553" stroke="#2B3844" stroke-width="1.8" stroke-linecap="round" stroke-linejoin="round"/>
<path d="M6.91178 8H5.91365H4.91553" stroke="#2B3844" stroke-width="1.8" stroke-linecap="round" stroke-linejoin="round"/>
</svg>
